<?xml version="1.0" standalone="no"?>
<!DOCTYPE svg PUBLIC "-//W3C//DTD SVG 20010904//EN"
 "http://www.w3.org/TR/2001/REC-SVG-20010904/DTD/svg10.dtd">
<svg version="1.0" xmlns="http://www.w3.org/2000/svg"
 width="512.000000pt" height="512.000000pt" viewBox="0 0 512.000000 512.000000"
 preserveAspectRatio="xMidYMid meet">
<metadata>
Created by potrace 1.14, written by Peter Selinger 2001-2017
</metadata>
<g transform="translate(0.000000,512.000000) scale(0.100000,-0.100000)"
fill="#000000" stroke="none">
<path d="M1415 3959 c-428 -54 -686 -279 -810 -704 -109 -376 -109 -1004 0
-1378 44 -152 130 -324 214 -426 58 -71 158 -148 256 -196 236 -116 589 -144
882 -70 109 28 251 99 317 159 l46 41 -52 180 c-28 99 -52 181 -53 183 -1 1
-35 -13 -76 -32 -131 -62 -375 -95 -481 -66 -83 24 -181 134 -228 257 -62 163
-96 475 -85 778 15 423 71 645 184 732 60 47 183 74 262 59 33 -6 36 -12 94
-144 l60 -137 178 -3 c97 -1 177 1 178 5 0 5 9 125 19 268 l18 260 -48 46
c-56 54 -177 119 -275 148 -154 46 -413 63 -600 40z"/>
<path d="M3290 3940 c-58 -4 -252 -8 -432 -9 l-328 -1 0 -1368 0 -1369 413 -9
c817 -18 937 -13 1122 47 266 86 421 242 501 504 25 82 27 104 27 255 1 138
-3 178 -21 243 -39 143 -109 242 -222 317 -44 30 -165 72 -245 86 l-40 6 51
18 c114 40 198 104 260 201 84 129 116 250 116 435 -2 369 -186 562 -602 629
-111 18 -449 27 -600 15z m255 -471 c143 -20 199 -72 216 -199 7 -48 7 -99 0
-156 -17 -139 -69 -233 -153 -279 -47 -26 -63 -29 -180 -33 l-128 -5 0 342 0
341 88 0 c48 0 118 -5 157 -11z m10 -1070 c106 -19 184 -71 222 -147 15 -32
18 -62 18 -207 0 -194 -9 -227 -85 -309 -58 -63 -106 -78 -272 -83 l-138 -5 0
381 0 381 98 0 c54 0 125 -5 157 -11z"/>
</g>
</svg>
