<?xml version="1.0" standalone="no"?>
<!DOCTYPE svg PUBLIC "-//W3C//DTD SVG 20010904//EN"
 "http://www.w3.org/TR/2001/REC-SVG-20010904/DTD/svg10.dtd">
<svg version="1.0" xmlns="http://www.w3.org/2000/svg"
 width="512.000000pt" height="512.000000pt" viewBox="0 0 512.000000 512.000000"
 preserveAspectRatio="xMidYMid meet">
<metadata>
Created by potrace 1.14, written by Peter Selinger 2001-2017
</metadata>
<g transform="translate(0.000000,512.000000) scale(0.100000,-0.100000)"
fill="#000000" stroke="none">
<path d="M2360 5114 c-258 -29 -407 -60 -600 -124 -389 -128 -724 -334 -1010
-620 -399 -399 -644 -896 -731 -1485 -18 -120 -18 -530 0 -650 87 -589 332
-1086 731 -1485 399 -399 896 -644 1485 -731 120 -18 530 -18 650 0 589 87
1086 332 1485 731 399 399 644 896 731 1485 18 120 18 530 0 650 -87 589 -332
1086 -731 1485 -391 391 -878 635 -1447 725 -93 15 -484 28 -563 19z m152
-504 c135 -20 254 -100 298 -201 100 -235 -40 -741 -279 -1001 -111 -121 -248
-142 -342 -52 -35 34 -66 102 -53 119 5 7 36 46 69 86 88 109 220 311 270 414
59 123 77 178 83 262 4 70 4 73 -26 102 -28 29 -35 31 -104 31 -154 0 -284
-73 -473 -264 -200 -201 -365 -443 -510 -748 -189 -399 -287 -774 -287 -1103
-1 -400 135 -653 379 -711 142 -34 340 3 501 93 208 116 452 358 570 565 17
29 40 90 52 136 56 221 170 477 251 566 60 66 97 81 163 66 60 -13 135 -51
162 -82 38 -42 36 -63 -16 -162 -109 -204 -210 -519 -213 -664 -2 -77 0 -85
22 -103 13 -10 35 -19 50 -19 97 0 294 187 445 423 28 43 43 84 61 168 39 174
104 274 195 299 72 20 215 4 227 -26 22 -58 -128 -672 -232 -948 -14 -38 -24
-71 -21 -73 8 -8 131 83 203 150 111 104 194 226 265 390 22 50 41 94 44 96 8
8 144 -104 144 -118 -1 -34 -69 -192 -113 -263 -116 -186 -315 -359 -577 -501
l-85 -46 -54 -123 c-77 -177 -193 -394 -274 -516 -94 -141 -220 -268 -310
-312 -160 -78 -368 -33 -443 96 -52 88 -42 242 22 364 86 163 257 298 605 475
l126 64 33 93 c43 121 90 271 86 275 -1 1 -24 -22 -50 -52 -66 -77 -175 -151
-259 -177 -180 -54 -381 23 -460 178 l-23 46 -59 -74 c-309 -384 -683 -577
-1075 -555 -196 11 -352 73 -476 190 -150 140 -238 316 -291 582 -24 124 -24
426 1 580 63 390 214 773 440 1115 394 598 908 932 1338 870z"/>
<path d="M3065 1186 c-117 -75 -225 -170 -261 -232 -30 -51 -43 -148 -25 -182
6 -12 21 -22 33 -22 27 0 169 143 223 225 39 60 144 254 145 268 0 14 -15 6
-115 -57z"/>
</g>
</svg>
